<svg width="504" height="330" viewBox="0 0 504 330" fill="none" xmlns="http://www.w3.org/2000/svg">
<path d="M42.4999 85.5C19.0278 85.5 -9.15527e-05 66.4721 -9.15527e-05 43C-9.15527e-05 19.5279 19.0278 0.500015 42.4999 0.500015L503 0L503.5 330H253.983C237.7 330 217 324.5 217 296C217 267.5 237.7 259.5 253.983 259.5H351C363.702 259.5 374 249.203 374 236.5C374 223.798 363.702 213.5 351 213.5H177.483C161.2 213.5 137 200.5 137 172C137 143.5 161.2 131.5 177.483 131.5L328 131.5C340.702 131.5 351 121.203 351 108.5C351 95.7975 340.702 85.5 328 85.5H42.4999Z" fill="#EB5757"/>
</svg>
