<svg width="144" height="165" viewBox="0 0 144 165" fill="none" xmlns="http://www.w3.org/2000/svg">
<path d="M71.8662 0.19989L0.620121 41.3311L0.620117 123.604L71.8674 164.738L143.117 123.606L143.116 41.3361L71.8662 0.19989Z" fill="url(#paint0_radial)"/>
<path d="M71.8662 0.19989L0.620121 41.3311L0.620117 123.604L71.8674 164.738L143.117 123.606L143.116 41.3361L71.8662 0.19989Z" stroke="#6AC28F"/>
<path d="M36.2014 99.9904L11.6494 88.0384V79.4704L36.0574 67.5904L39.8734 76.4464L29.0014 81.4144C28.4254 81.7024 27.8254 81.9664 27.2014 82.2064C26.5774 82.4464 26.0014 82.6864 25.4734 82.9264C24.9454 83.1184 24.4654 83.2864 24.0334 83.4304C23.6494 83.5744 23.3854 83.6704 23.2414 83.7184C23.9134 83.9584 24.8014 84.2944 25.9054 84.7264C27.0094 85.1584 28.0414 85.5904 29.0014 86.0224L40.0174 91.2064L36.2014 99.9904ZM46.8029 56.6464H77.8349V65.3584H58.6829V75.7984H74.5949L73.2269 84.3664H58.6829V96.6784H78.8429V105.39H46.8029V56.6464ZM96.0807 102.294C96.0807 104.982 95.7207 107.31 95.0007 109.278C94.2807 111.246 93.2727 112.974 91.9767 114.462C90.6807 115.95 89.1687 117.246 87.4407 118.35C85.7127 119.454 83.8407 120.486 81.8247 121.446L77.0007 113.454C78.8247 112.494 80.2167 111.534 81.1767 110.574C82.1847 109.662 82.9047 108.726 83.3367 107.766C83.8167 106.854 84.0807 105.966 84.1287 105.102C84.2247 104.19 84.2727 103.302 84.2727 102.438V56.6464H96.0807V102.294ZM102.932 91.2064L113.948 86.0224C114.86 85.6384 115.844 85.2304 116.9 84.7984C118.004 84.3184 118.916 83.9584 119.636 83.7184C119.492 83.6704 119.228 83.5984 118.844 83.5024C118.46 83.3584 118.004 83.1904 117.476 82.9984C116.948 82.7584 116.372 82.5184 115.748 82.2784C115.124 81.9904 114.524 81.7024 113.948 81.4144L103.076 76.4464L106.892 67.5904L131.3 79.4704V88.0384L106.748 99.9904L102.932 91.2064Z" fill="white"/>
<defs>
<radialGradient id="paint0_radial" cx="0" cy="0" r="1" gradientUnits="userSpaceOnUse" gradientTransform="translate(71.8683 82.4697) rotate(121.251) scale(85.8167 99.0963)">
<stop offset="0.25" stop-color="#6FCF97"/>
<stop offset="1" stop-color="#86D5A7"/>
</radialGradient>
</defs>
</svg>
