<svg width="128" height="95" viewBox="0 0 128 95" fill="none" xmlns="http://www.w3.org/2000/svg">
<path d="M37.3444 72.3131L0.946289 53.9584V40.8005L37.1309 22.5564L42.7881 36.1565L26.6705 43.7859C25.8165 44.2282 24.927 44.6336 24.002 45.0022C23.0769 45.3707 22.223 45.7393 21.4402 46.1079C20.6575 46.4027 19.9459 46.6607 19.3054 46.8819C18.7362 47.103 18.3448 47.2504 18.1313 47.3241C19.1275 47.6927 20.444 48.2087 22.0807 48.8721C23.7173 49.5355 25.2473 50.199 26.6705 50.8624L43.0016 58.8235L37.3444 72.3131Z" fill="white"/>
<path d="M72.4327 0H90.0446L56.1016 94.5377H38.4896L72.4327 0Z" fill="white"/>
<path d="M85.5352 58.8235L101.866 50.8624C103.218 50.2727 104.677 49.6461 106.243 48.9827C107.879 48.2456 109.231 47.6927 110.299 47.3241C110.085 47.2504 109.694 47.1399 109.125 46.9924C108.555 46.7713 107.879 46.5133 107.096 46.2184C106.314 45.8499 105.46 45.4813 104.535 45.1127C103.61 44.6704 102.72 44.2282 101.866 43.7859L85.7486 36.1565L91.4058 22.5564L127.59 40.8005V53.9584L91.1923 72.3131L85.5352 58.8235Z" fill="white"/>
</svg>
