<svg width="121" height="66" viewBox="0 0 121 66" fill="none" xmlns="http://www.w3.org/2000/svg">
<path d="M25.2605 43.7539L0.708496 31.8019V23.2339L25.1165 11.3539L28.9325 20.2099L18.0605 25.1779C17.4845 25.4659 16.8845 25.7299 16.2605 25.9699C15.6365 26.2099 15.0605 26.4499 14.5325 26.6899C14.0045 26.8819 13.5245 27.0499 13.0925 27.1939C12.7085 27.3379 12.4445 27.4339 12.3005 27.4819C12.9725 27.7219 13.8605 28.0579 14.9645 28.4899C16.0685 28.9219 17.1005 29.3539 18.0605 29.7859L29.0765 34.9699L25.2605 43.7539Z" fill="white"/>
<path d="M35.8619 0.409912H66.8939V9.12191H47.7419V19.5619H63.6539L62.2859 28.1299H47.7419V40.4419H67.9019V49.1539H35.8619V0.409912Z" fill="white"/>
<path d="M85.1397 46.0579C85.1397 48.7459 84.7797 51.0739 84.0597 53.0419C83.3397 55.0099 82.3317 56.7379 81.0357 58.2259C79.7397 59.7139 78.2277 61.0099 76.4997 62.1139C74.7717 63.2179 72.8997 64.2499 70.8837 65.2099L66.0597 57.2179C67.8837 56.2579 69.2757 55.2979 70.2357 54.3379C71.2437 53.4259 71.9637 52.4899 72.3957 51.5299C72.8757 50.6179 73.1397 49.7299 73.1877 48.8659C73.2837 47.9539 73.3317 47.0659 73.3317 46.2019V0.409912H85.1397V46.0579Z" fill="white"/>
<path d="M91.991 34.9699L103.007 29.7859C103.919 29.4019 104.903 28.9939 105.959 28.5619C107.063 28.0819 107.975 27.7219 108.695 27.4819C108.551 27.4339 108.287 27.3619 107.903 27.2659C107.519 27.1219 107.063 26.9539 106.535 26.7619C106.007 26.5219 105.431 26.2819 104.807 26.0419C104.183 25.7539 103.583 25.4659 103.007 25.1779L92.135 20.2099L95.951 11.3539L120.359 23.2339V31.8019L95.807 43.7539L91.991 34.9699Z" fill="white"/>
</svg>
